<svg width="19" height="14" viewBox="0 0 19 14" fill="none" xmlns="http://www.w3.org/2000/svg">
<path d="M3.0875 1.86892H1.6625C1.26766 1.86892 0.95 2.18138 0.95 2.56977V5.60677H0.2375C0.106875 5.60677 0 5.71189 0 5.84038V7.24208C0 7.37056 0.106875 7.47569 0.2375 7.47569H0.95V10.5127C0.95 10.9011 1.26766 11.2135 1.6625 11.2135H3.0875C3.48234 11.2135 3.8 10.9011 3.8 10.5127V2.56977C3.8 2.18138 3.48234 1.86892 3.0875 1.86892ZM18.7625 5.60677H18.05V2.56977C18.05 2.18138 17.7323 1.86892 17.3375 1.86892H15.9125C15.5177 1.86892 15.2 2.18138 15.2 2.56977V10.5127C15.2 10.9011 15.5177 11.2135 15.9125 11.2135H17.3375C17.7323 11.2135 18.05 10.9011 18.05 10.5127V7.47569H18.7625C18.8931 7.47569 19 7.37056 19 7.24208V5.84038C19 5.71189 18.8931 5.60677 18.7625 5.60677ZM13.5375 0H12.1125C11.7177 0 11.4 0.312461 11.4 0.700846V5.60677H7.6V0.700846C7.6 0.312461 7.28234 0 6.8875 0H5.4625C5.06766 0 4.75 0.312461 4.75 0.700846V12.3816C4.75 12.77 5.06766 13.0825 5.4625 13.0825H6.8875C7.28234 13.0825 7.6 12.77 7.6 12.3816V7.47569H11.4V12.3816C11.4 12.77 11.7177 13.0825 12.1125 13.0825H13.5375C13.9323 13.0825 14.25 12.77 14.25 12.3816V0.700846C14.25 0.312461 13.9323 0 13.5375 0Z" fill="#333333"/>
</svg>
