<svg width="28" height="22" viewBox="0 0 28 22" fill="none" xmlns="http://www.w3.org/2000/svg">
<path d="M27.1797 11.9694L17.9922 21.2152C17.1719 22.0407 15.75 21.4628 15.75 20.2796V14.9963H8.3125C7.58516 14.9963 7 14.4074 7 13.6755V8.39218C7 7.66023 7.58516 7.07136 8.3125 7.07136H15.75V1.78806C15.75 0.610324 17.1664 0.02696 17.9922 0.852475L27.1797 10.0982C27.6883 10.6156 27.6883 11.4521 27.1797 11.9694ZM10.5 20.94V18.7386C10.5 18.3754 10.2047 18.0782 9.84375 18.0782H5.25C4.28203 18.0782 3.5 17.2912 3.5 16.3171V5.75053C3.5 4.77643 4.28203 3.98943 5.25 3.98943H9.84375C10.2047 3.98943 10.5 3.69225 10.5 3.32902V1.12765C10.5 0.764421 10.2047 0.467235 9.84375 0.467235H5.25C2.35156 0.467235 0 2.83371 0 5.75053V16.3171C0 19.234 2.35156 21.6004 5.25 21.6004H9.84375C10.2047 21.6004 10.5 21.3032 10.5 20.94Z" fill="#404040"/>
</svg>
