<svg width="14" height="15" viewBox="0 0 14 15" fill="none" xmlns="http://www.w3.org/2000/svg">
<path d="M13.7708 4.8159L13.9941 3.55796C14.0351 3.32666 13.8584 3.11426 13.6249 3.11426H11.2871L11.7441 0.53892C11.7851 0.307617 11.6084 0.0952148 11.3749 0.0952148H10.1052C10.0171 0.0952165 9.93191 0.12638 9.86442 0.183249C9.79693 0.240117 9.75147 0.319066 9.736 0.406271L9.25547 3.11426H6.17312L6.63009 0.53892C6.67116 0.307617 6.49444 0.0952148 6.26094 0.0952148H4.99119C4.90316 0.0952165 4.81794 0.12638 4.75045 0.183249C4.68296 0.240117 4.6375 0.319066 4.62203 0.406271L4.1415 3.11426H1.66975C1.58173 3.11426 1.49651 3.14542 1.42902 3.20229C1.36153 3.25916 1.31607 3.33811 1.3006 3.42531L1.07738 4.68325C1.03635 4.91455 1.21307 5.12695 1.44653 5.12695H3.78434L3.07006 9.15234H0.598316C0.510291 9.15235 0.425072 9.18351 0.357581 9.24038C0.290091 9.29725 0.24463 9.37619 0.22916 9.4634L0.00594094 10.7213C-0.0350903 10.9526 0.141628 11.165 0.375097 11.165H2.71291L2.25594 13.7404C2.21491 13.9717 2.39163 14.1841 2.6251 14.1841H3.89485C3.98287 14.1841 4.06809 14.1529 4.13558 14.096C4.20307 14.0392 4.24853 13.9602 4.264 13.873L4.74456 11.165H7.82687L7.36991 13.7404C7.32884 13.9717 7.50556 14.1841 7.73906 14.1841H9.00881C9.09684 14.1841 9.18205 14.1529 9.24955 14.096C9.31704 14.0392 9.3625 13.9602 9.37797 13.873L9.8585 11.165H12.3302C12.4183 11.165 12.5035 11.1339 12.571 11.077C12.6385 11.0201 12.6839 10.9412 12.6994 10.854L12.9226 9.59605C12.9637 9.36475 12.7869 9.15234 12.5535 9.15234H10.2157L10.9299 5.12695H13.4017C13.4897 5.12695 13.5749 5.09579 13.6424 5.03892C13.7099 4.98205 13.7554 4.9031 13.7708 4.8159ZM8.18403 9.15234H5.10172L5.816 5.12695H8.89831L8.18403 9.15234Z" fill="#333333"/>
</svg>
