<svg width="21" height="18" viewBox="0 0 21 18" fill="none" xmlns="http://www.w3.org/2000/svg">
<path d="M20.475 12.138H20.0773C19.1418 12.138 18.6733 10.9862 19.3348 10.3126L19.6163 10.0262C19.6651 9.97659 19.7037 9.91765 19.7301 9.85278C19.7565 9.78791 19.7701 9.71838 19.7701 9.64816C19.7701 9.57795 19.7565 9.50842 19.7301 9.44355C19.7037 9.37868 19.6651 9.31974 19.6163 9.27009C19.5675 9.22044 19.5097 9.18105 19.446 9.15418C19.3822 9.12731 19.314 9.11348 19.245 9.11348C19.1761 9.11348 19.1078 9.12731 19.0441 9.15418C18.9804 9.18105 18.9225 9.22044 18.8737 9.27009L18.5925 9.55678C17.931 10.2304 16.8 9.75325 16.8 8.80062V8.39565C16.8 8.25386 16.7447 8.11787 16.6462 8.01761C16.5478 7.91735 16.4142 7.86103 16.275 7.86103C16.1358 7.86103 16.0022 7.91735 15.9038 8.01761C15.8053 8.11787 15.75 8.25386 15.75 8.39565V8.80062C15.75 9.75325 14.619 10.2304 13.9575 9.55678L13.6762 9.27009C13.5778 9.16981 13.4442 9.11348 13.305 9.11348C13.1657 9.11348 13.0322 9.16981 12.9337 9.27009C12.8352 9.37036 12.7799 9.50636 12.7799 9.64816C12.7799 9.78997 12.8352 9.92597 12.9337 10.0262L13.2152 10.3126C13.8767 10.9862 13.4082 12.138 12.4727 12.138H12.075C11.9358 12.138 11.8022 12.1943 11.7038 12.2946C11.6053 12.3948 11.55 12.5308 11.55 12.6726C11.55 12.8144 11.6053 12.9504 11.7038 13.0506C11.8022 13.1509 11.9358 13.2072 12.075 13.2072H12.4727C13.4082 13.2072 13.8767 14.359 13.2152 15.0326L12.9337 15.319C12.8849 15.3686 12.8463 15.4276 12.8199 15.4924C12.7935 15.5573 12.7799 15.6268 12.7799 15.6971C12.7799 15.7673 12.7935 15.8368 12.8199 15.9017C12.8463 15.9665 12.8849 16.0255 12.9337 16.0751C12.9825 16.1248 13.0403 16.1642 13.104 16.191C13.1677 16.2179 13.236 16.2317 13.305 16.2317C13.3739 16.2317 13.4422 16.2179 13.5059 16.191C13.5696 16.1642 13.6275 16.1248 13.6762 16.0751L13.9575 15.7884C14.619 15.1148 15.75 15.592 15.75 16.5446V16.9496C15.75 17.0914 15.8053 17.2273 15.9038 17.3276C16.0022 17.4279 16.1358 17.4842 16.275 17.4842C16.4142 17.4842 16.5478 17.4279 16.6462 17.3276C16.7447 17.2273 16.8 17.0914 16.8 16.9496V16.5446C16.8 15.592 17.931 15.1148 18.5925 15.7884L18.8737 16.0751C18.9225 16.1248 18.9804 16.1642 19.0441 16.191C19.1078 16.2179 19.1761 16.2317 19.245 16.2317C19.314 16.2317 19.3822 16.2179 19.446 16.191C19.5097 16.1642 19.5675 16.1248 19.6163 16.0751C19.6651 16.0255 19.7037 15.9665 19.7301 15.9017C19.7565 15.8368 19.7701 15.7673 19.7701 15.6971C19.7701 15.6268 19.7565 15.5573 19.7301 15.4924C19.7037 15.4276 19.6651 15.3686 19.6163 15.319L19.3348 15.0326C18.6733 14.359 19.1418 13.2072 20.0773 13.2072H20.475C20.6142 13.2072 20.7478 13.1509 20.8462 13.0506C20.9447 12.9504 21 12.8144 21 12.6726C21 12.5308 20.9447 12.3948 20.8462 12.2946C20.7478 12.1943 20.6142 12.138 20.475 12.138ZM15.75 13.2072C15.5423 13.2072 15.3393 13.1445 15.1666 13.027C14.994 12.9095 14.8594 12.7425 14.7799 12.5472C14.7005 12.3518 14.6797 12.1368 14.7202 11.9294C14.7607 11.722 14.8607 11.5315 15.0075 11.3819C15.1544 11.2324 15.3415 11.1306 15.5452 11.0893C15.7488 11.048 15.96 11.0692 16.1518 11.1501C16.3437 11.2311 16.5077 11.3681 16.623 11.544C16.7384 11.7198 16.8 11.9265 16.8 12.138C16.8 12.4216 16.6894 12.6935 16.4925 12.8941C16.2955 13.0946 16.0285 13.2072 15.75 13.2072ZM11.3699 7.5045H11.9001C12.0857 7.5045 12.2638 7.42941 12.395 7.29575C12.5263 7.16209 12.6 6.98081 12.6 6.79179C12.6 6.60276 12.5263 6.42148 12.395 6.28782C12.2638 6.15416 12.0857 6.07907 11.9001 6.07907H11.3699C10.123 6.07907 9.49791 4.54204 10.3799 3.64521L10.755 3.26296C10.8854 3.12912 10.9585 2.94807 10.9582 2.75946C10.9578 2.57086 10.8841 2.39009 10.7531 2.25675C10.6221 2.1234 10.4446 2.04837 10.2594 2.04808C10.0742 2.04779 9.89639 2.12227 9.765 2.2552L9.38995 2.63712C8.50795 3.53528 6.99989 2.89942 6.99989 1.62902V1.08906C6.99989 0.900035 6.92615 0.718752 6.7949 0.585092C6.66364 0.451432 6.48562 0.376343 6.3 0.376343C6.11438 0.376343 5.93636 0.451432 5.8051 0.585092C5.67385 0.718752 5.60011 0.900035 5.60011 1.08906V1.62902C5.60011 2.89875 4.09073 3.53528 3.21005 2.63712L2.835 2.2552C2.70361 2.12227 2.52584 2.04779 2.34063 2.04808C2.15542 2.04837 1.97788 2.1234 1.84689 2.25675C1.71591 2.39009 1.64216 2.57086 1.64182 2.75946C1.64147 2.94807 1.71455 3.12912 1.84505 3.26296L2.22009 3.64521C3.10209 4.54337 2.47767 6.07907 1.23014 6.07907H0.699891C0.514268 6.07907 0.336248 6.15416 0.204993 6.28782C0.0737382 6.42148 0 6.60276 0 6.79179C0 6.98081 0.0737382 7.16209 0.204993 7.29575C0.336248 7.42941 0.514268 7.5045 0.699891 7.5045H1.23014C2.47702 7.5045 3.10209 9.04154 2.22009 9.93836L1.84505 10.3203C1.78005 10.3865 1.72848 10.4651 1.69331 10.5515C1.65813 10.638 1.64002 10.7307 1.64002 10.8243C1.64002 11.0134 1.71377 11.1947 1.84505 11.3284C1.97632 11.4621 2.15437 11.5372 2.34002 11.5372C2.52568 11.5372 2.70372 11.4621 2.835 11.3284L3.21005 10.9465C4.09205 10.0483 5.60011 10.6842 5.60011 11.9545V12.4945C5.60011 12.6835 5.67385 12.8648 5.8051 12.9985C5.93636 13.1321 6.11438 13.2072 6.3 13.2072C6.48562 13.2072 6.66364 13.1321 6.7949 12.9985C6.92615 12.8648 6.99989 12.6835 6.99989 12.4945V11.9545C6.99989 10.6848 8.50927 10.0483 9.38995 10.9465L9.765 11.3284C9.89628 11.4621 10.0743 11.5372 10.26 11.5372C10.4456 11.5372 10.6237 11.4621 10.755 11.3284C10.8862 11.1947 10.96 11.0134 10.96 10.8243C10.96 10.6353 10.8862 10.454 10.755 10.3203L10.3799 9.93836C9.49791 9.0402 10.1223 7.5045 11.3699 7.5045ZM5.25 6.79179C5.04233 6.79179 4.83932 6.72908 4.66665 6.61159C4.49398 6.4941 4.3594 6.3271 4.27993 6.13173C4.20045 5.93635 4.17966 5.72136 4.22018 5.51395C4.26069 5.30653 4.36069 5.11601 4.50754 4.96648C4.65438 4.81694 4.84148 4.71511 5.04516 4.67385C5.24884 4.63259 5.45995 4.65377 5.65182 4.7347C5.84368 4.81562 6.00767 4.95267 6.12304 5.12851C6.23842 5.30434 6.3 5.51107 6.3 5.72255C6.3 6.00613 6.18937 6.27809 5.99246 6.47861C5.79555 6.67913 5.52848 6.79179 5.25 6.79179ZM7.875 7.86103C7.77116 7.86103 7.66966 7.82967 7.58332 7.77093C7.49699 7.71218 7.4297 7.62869 7.38996 7.531C7.35023 7.43331 7.33983 7.32581 7.36009 7.22211C7.38034 7.1184 7.43035 7.02314 7.50377 6.94837C7.57719 6.8736 7.67074 6.82269 7.77258 6.80206C7.87442 6.78143 7.97998 6.79202 8.07591 6.83248C8.17184 6.87295 8.25383 6.94147 8.31152 7.02939C8.36921 7.1173 8.4 7.22067 8.4 7.32641C8.4 7.4682 8.34469 7.60418 8.24623 7.70444C8.14777 7.8047 8.01424 7.86103 7.875 7.86103Z" fill="#333333"/>
</svg>
