<svg width="26" height="26" viewBox="0 0 26 26" fill="none" xmlns="http://www.w3.org/2000/svg">
<path d="M13 0.131836C6.04515 0.131836 0.40625 5.80855 0.40625 12.8055C0.40625 19.8065 6.04515 25.4791 13 25.4791C19.9548 25.4791 25.5938 19.8065 25.5938 12.8055C25.5938 5.80855 19.9548 0.131836 13 0.131836ZM13 23.0261C7.38705 23.0261 2.84375 18.4559 2.84375 12.8055C2.84375 7.1588 7.38725 2.5848 13 2.5848C18.6109 2.5848 23.1562 7.15706 23.1562 12.8055C23.1562 18.4539 18.6148 23.0261 13 23.0261ZM18.446 9.98456C18.446 13.4111 14.7684 13.4639 14.7684 14.7302V15.054C14.7684 15.3927 14.4955 15.6672 14.159 15.6672H11.841C11.5044 15.6672 11.2316 15.3927 11.2316 15.054V14.6115C11.2316 12.7848 12.6078 12.0546 13.6477 11.4678C14.5395 10.9647 15.086 10.6225 15.086 9.95625C15.086 9.07492 13.9689 8.48994 13.0658 8.48994C11.8882 8.48994 11.3446 9.0509 10.5804 10.0215C10.3744 10.2831 9.99847 10.3317 9.73411 10.13L8.32117 9.05182C8.06183 8.85395 8.00373 8.48631 8.1869 8.21562C9.38671 6.44264 10.9149 5.44658 13.2942 5.44658C15.7861 5.44658 18.446 7.40404 18.446 9.98456ZM15.1328 18.529C15.1328 19.7125 14.176 20.6754 13 20.6754C11.824 20.6754 10.8672 19.7125 10.8672 18.529C10.8672 17.3455 11.824 16.3827 13 16.3827C14.176 16.3827 15.1328 17.3455 15.1328 18.529Z" fill="#404040"/>
</svg>
