<svg width="20" height="20" viewBox="0 0 20 20" fill="none" xmlns="http://www.w3.org/2000/svg">
<path d="M7.55656 6.78014L10.7765 10.0004L7.55656 13.2206L9.14382 14.8082L13.9516 10.0004L9.14382 5.19287L7.55656 6.78014Z" fill="#00B8D1"/>
<path d="M9.99969 0C4.4768 0.000585937 0.000585937 4.4768 0 10C0.000585937 15.5232 4.4768 19.9994 9.99969 20C15.5232 19.9994 19.9994 15.5232 20 10C19.9994 4.4768 15.5232 0.000585937 9.99969 0ZM15.9604 15.9604C14.4323 17.4869 12.33 18.4287 9.99969 18.4293C7.66973 18.4287 5.56738 17.4869 4.03965 15.9604C2.51281 14.4326 1.57102 12.33 1.5707 10C1.57102 7.66973 2.51281 5.56738 4.03965 4.03965C5.56738 2.51281 7.66973 1.57102 9.99969 1.5707C12.33 1.57102 14.4323 2.51281 15.9604 4.03965C17.4872 5.56738 18.429 7.66973 18.4293 10C18.429 12.33 17.4872 14.4326 15.9604 15.9604Z" fill="#00B8D1"/>
</svg>
