<svg width="17" height="19" viewBox="0 0 17 19" fill="none" xmlns="http://www.w3.org/2000/svg">
<path d="M16.7829 11.3162L15.2577 10.4177C15.4116 9.57047 15.4116 8.70128 15.2577 7.854L16.7829 6.9556C16.9583 6.85334 17.0371 6.64152 16.9798 6.44431C16.5824 5.14418 15.9057 3.96822 15.0214 2.98947C14.8853 2.83973 14.6633 2.80321 14.4915 2.90547L12.9663 3.80387C12.3254 3.24146 11.5879 2.80686 10.7894 2.522V0.728845C10.7894 0.52433 10.6498 0.34538 10.4529 0.301555C9.13893 0.0020865 7.79274 0.0166947 6.54321 0.301555C6.3463 0.34538 6.20667 0.52433 6.20667 0.728845V2.52566C5.41184 2.81417 4.6743 3.24876 4.02984 3.80753L2.50822 2.90912C2.33278 2.80686 2.11438 2.83973 1.97833 2.99312C1.094 3.96822 0.417324 5.14418 0.0199107 6.44796C-0.0409543 6.64517 0.0413925 6.85699 0.216827 6.95925L1.74203 7.85766C1.58808 8.70493 1.58808 9.57412 1.74203 10.4214L0.216827 11.3198C0.0413925 11.4221 -0.037374 11.6339 0.0199107 11.8311C0.417324 13.1312 1.094 14.3072 1.97833 15.2859C2.11438 15.4357 2.33636 15.4722 2.50822 15.3699L4.03342 14.4715C4.6743 15.0339 5.41184 15.4685 6.21025 15.7534V17.5502C6.21025 17.7547 6.34988 17.9337 6.54679 17.9775C7.86076 18.277 9.20695 18.2624 10.4565 17.9775C10.6534 17.9337 10.793 17.7547 10.793 17.5502V15.7534C11.5879 15.4649 12.3254 15.0303 12.9698 14.4715L14.4951 15.3699C14.6705 15.4722 14.8889 15.4393 15.0249 15.2859C15.9093 14.3108 16.5859 13.1349 16.9834 11.8311C17.0371 11.6302 16.9583 11.4184 16.7829 11.3162ZM8.49806 12.0575C6.91914 12.0575 5.63382 10.7464 5.63382 9.13587C5.63382 7.52532 6.91914 6.21423 8.49806 6.21423C10.077 6.21423 11.3623 7.52532 11.3623 9.13587C11.3623 10.7464 10.077 12.0575 8.49806 12.0575Z" fill="#333333"/>
</svg>
