<svg width="19" height="15" viewBox="0 0 19 15" fill="none" xmlns="http://www.w3.org/2000/svg">
<path d="M17.4167 0.10144H1.58333C0.709201 0.10144 0 0.777577 0 1.61096V12.6807C0 13.5141 0.709201 14.1902 1.58333 14.1902H17.4167C18.2908 14.1902 19 13.5141 19 12.6807V1.61096C19 0.777577 18.2908 0.10144 17.4167 0.10144ZM5.80556 3.12047C6.96997 3.12047 7.91667 4.02303 7.91667 5.13316C7.91667 6.24328 6.96997 7.14584 5.80556 7.14584C4.64115 7.14584 3.69444 6.24328 3.69444 5.13316C3.69444 4.02303 4.64115 3.12047 5.80556 3.12047ZM9.5 10.5674C9.5 10.9008 9.17014 11.1712 8.76111 11.1712H2.85C2.44097 11.1712 2.11111 10.9008 2.11111 10.5674V9.9636C2.11111 8.96355 3.10399 8.15219 4.32778 8.15219H4.49271C4.89844 8.31257 5.34045 8.40377 5.80556 8.40377C6.27066 8.40377 6.71597 8.31257 7.1184 8.15219H7.28333C8.50712 8.15219 9.5 8.96355 9.5 9.9636V10.5674ZM16.8889 8.90694C16.8889 9.04532 16.7701 9.15853 16.625 9.15853H11.875C11.7299 9.15853 11.6111 9.04532 11.6111 8.90694V8.40377C11.6111 8.2654 11.7299 8.15219 11.875 8.15219H16.625C16.7701 8.15219 16.8889 8.2654 16.8889 8.40377V8.90694ZM16.8889 6.89426C16.8889 7.03263 16.7701 7.14584 16.625 7.14584H11.875C11.7299 7.14584 11.6111 7.03263 11.6111 6.89426V6.39109C11.6111 6.25271 11.7299 6.1395 11.875 6.1395H16.625C16.7701 6.1395 16.8889 6.25271 16.8889 6.39109V6.89426ZM16.8889 4.88157C16.8889 5.01994 16.7701 5.13316 16.625 5.13316H11.875C11.7299 5.13316 11.6111 5.01994 11.6111 4.88157V4.3784C11.6111 4.24003 11.7299 4.12681 11.875 4.12681H16.625C16.7701 4.12681 16.8889 4.24003 16.8889 4.3784V4.88157Z" fill="#333333"/>
</svg>
