<svg width="20" height="15" viewBox="0 0 20 15" fill="none" xmlns="http://www.w3.org/2000/svg">
<path d="M19.5821 2.20442C19.3521 1.33671 18.6744 0.65333 17.8139 0.421416C16.2542 0 10 0 10 0C10 0 3.74586 0 2.18613 0.421416C1.32565 0.653367 0.647936 1.33671 0.417919 2.20442C0 3.77719 0 7.05862 0 7.05862C0 7.05862 0 10.3401 0.417919 11.9128C0.647936 12.7805 1.32565 13.4354 2.18613 13.6674C3.74586 14.0888 10 14.0888 10 14.0888C10 14.0888 16.2541 14.0888 17.8139 13.6674C18.6744 13.4354 19.3521 12.7805 19.5821 11.9128C20 10.3401 20 7.05862 20 7.05862C20 7.05862 20 3.77719 19.5821 2.20442ZM7.95453 10.0379V4.07932L13.1818 7.0587L7.95453 10.0379Z" fill="#333333"/>
</svg>
